<svg width="36" height="36" viewBox="0 0 36 36" fill="none" xmlns="http://www.w3.org/2000/svg">
<rect width="36" height="36" rx="18" fill="#FFBA00" fill-opacity="0.22"/>
<path d="M16.1067 17.2466C16.04 17.2399 15.96 17.2399 15.8867 17.2466C14.3 17.1933 13.04 15.8933 13.04 14.2933C13.04 12.6599 14.36 11.3333 16 11.3333C17.6334 11.3333 18.96 12.6599 18.96 14.2933C18.9534 15.8933 17.6934 17.1933 16.1067 17.2466Z" stroke="#FDB903" stroke-width="1.5" stroke-linecap="round" stroke-linejoin="round"/>
<path d="M20.9401 12.6667C22.2334 12.6667 23.2734 13.7134 23.2734 15.0001C23.2734 16.2601 22.2734 17.2867 21.0267 17.3334C20.9734 17.3267 20.9134 17.3267 20.8534 17.3334" stroke="#FDB903" stroke-width="1.5" stroke-linecap="round" stroke-linejoin="round"/>
<path d="M12.7734 19.7067C11.16 20.7867 11.16 22.5467 12.7734 23.6201C14.6067 24.8467 17.6134 24.8467 19.4467 23.6201C21.06 22.5401 21.06 20.7801 19.4467 19.7067C17.62 18.4867 14.6134 18.4867 12.7734 19.7067Z" stroke="#FDB903" stroke-width="1.5" stroke-linecap="round" stroke-linejoin="round"/>
<path d="M22.2267 23.3333C22.7067 23.2333 23.16 23.0399 23.5334 22.7533C24.5734 21.9733 24.5734 20.6866 23.5334 19.9066C23.1667 19.6266 22.72 19.4399 22.2467 19.3333" stroke="#FDB903" stroke-width="1.5" stroke-linecap="round" stroke-linejoin="round"/>
</svg>
