<svg width="18" height="18" viewBox="0 0 18 18" fill="none" xmlns="http://www.w3.org/2000/svg">
<path d="M4.48131 11.9013C3.30234 12.6033 0.211137 14.0367 2.09388 15.8304C3.01359 16.7066 4.03791 17.3333 5.32572 17.3333H12.6743C13.9621 17.3333 14.9864 16.7066 15.9061 15.8304C17.7889 14.0367 14.6977 12.6033 13.5187 11.9013C10.754 10.2551 7.24599 10.2551 4.48131 11.9013Z" stroke="white" stroke-width="1.25" stroke-linecap="round" stroke-linejoin="round"/>
<path d="M12.75 4.41663C12.75 6.48769 11.0711 8.16663 9 8.16663C6.92893 8.16663 5.25 6.48769 5.25 4.41663C5.25 2.34556 6.92893 0.666626 9 0.666626C11.0711 0.666626 12.75 2.34556 12.75 4.41663Z" stroke="white" stroke-width="1.25"/>
</svg>
