<svg width="20" height="20" viewBox="0 0 20 20" fill="none" xmlns="http://www.w3.org/2000/svg">
<path d="M18.3333 15C18.3333 16.1667 18.3333 16.7501 18.1062 17.1958C17.9065 17.5878 17.5878 17.9065 17.1958 18.1062C16.7501 18.3333 16.1667 18.3333 15 18.3333C13.8332 18.3333 13.2498 18.3333 12.8041 18.1062C12.4121 17.9065 12.0934 17.5878 11.8937 17.1958C11.6666 16.7501 11.6666 16.1667 11.6666 15C11.6666 13.8332 11.6666 13.2498 11.8937 12.8041C12.0934 12.4121 12.4121 12.0934 12.8041 11.8937C13.2498 11.6666 13.8332 11.6666 15 11.6666C16.1667 11.6666 16.7501 11.6666 17.1958 11.8937C17.5878 12.0934 17.9065 12.4121 18.1062 12.8041C18.3333 13.2498 18.3333 13.8332 18.3333 15Z" stroke="white" stroke-width="1.25"/>
<path d="M18.3333 8.33333C18.3333 9.50011 18.3333 10.0835 18.1062 10.5291C17.9065 10.9212 17.5878 11.2399 17.1958 11.4396C16.7501 11.6667 16.1667 11.6667 15 11.6667C13.8332 11.6667 13.2498 11.6667 12.8041 11.4396C12.4121 11.2399 12.0934 10.9211 11.8937 10.5291C11.6666 10.0835 11.6666 9.50011 11.6666 8.33333C11.6666 7.16656 11.6666 6.58317 11.8937 6.13752C12.0934 5.74551 12.4121 5.42681 12.8041 5.22707C13.2498 5 13.8332 5 15 5C16.1667 5 16.7501 5 17.1958 5.22707C17.5878 5.42681 17.9065 5.74552 18.1062 6.13752C18.3333 6.58317 18.3333 7.16656 18.3333 8.33333Z" stroke="white" stroke-width="1.25"/>
<path d="M11.6665 15C11.6665 16.1667 11.6665 16.7501 11.4395 17.1958C11.2397 17.5878 10.921 17.9065 10.529 18.1062C10.0834 18.3333 9.49999 18.3333 8.33321 18.3333C7.16643 18.3333 6.58305 18.3333 6.1374 18.1062C5.74539 17.9065 5.42668 17.5878 5.22695 17.1958C4.99988 16.7501 4.99988 16.1667 4.99988 15C4.99988 13.8332 4.99988 13.2498 5.22695 12.8041C5.42668 12.4121 5.74539 12.0934 6.1374 11.8937C6.58305 11.6666 7.16644 11.6666 8.33321 11.6666C9.49999 11.6666 10.0834 11.6666 10.529 11.8937C10.921 12.0934 11.2397 12.4121 11.4395 12.8041C11.6665 13.2498 11.6665 13.8332 11.6665 15Z" stroke="white" stroke-width="1.25"/>
<path d="M8.33329 4.99996C8.33329 6.16673 8.33329 6.75012 8.10622 7.19577C7.90649 7.58778 7.58778 7.90649 7.19577 8.10622C6.75012 8.33329 6.16674 8.33329 4.99996 8.33329C3.83318 8.33329 3.24979 8.33329 2.80415 8.10622C2.41214 7.90649 2.09343 7.58778 1.8937 7.19577C1.66663 6.75012 1.66663 6.16673 1.66663 4.99996C1.66663 3.83318 1.66663 3.24979 1.8937 2.80415C2.09343 2.41214 2.41214 2.09343 2.80415 1.8937C3.2498 1.66663 3.83318 1.66663 4.99996 1.66663C6.16674 1.66663 6.75012 1.66663 7.19577 1.8937C7.58778 2.09343 7.90649 2.41214 8.10622 2.80415C8.33329 3.2498 8.33329 3.83318 8.33329 4.99996Z" stroke="white" stroke-width="1.25"/>
</svg>
