<svg width="25" height="24" viewBox="0 0 25 24" fill="none" xmlns="http://www.w3.org/2000/svg">
<path d="M19 16C19.5057 16.4915 21.5 17.7998 21.5 18.5M19 21C19.5057 20.5085 21.5 19.2002 21.5 18.5M21.5 18.5L13.5 18.5" stroke="white" stroke-width="1.5" stroke-linecap="round" stroke-linejoin="round"/>
<path d="M11.5 22H11.2273C7.96607 22 6.33546 22 5.20307 21.2022C4.87862 20.9736 4.59058 20.7025 4.3477 20.3971C3.5 19.3313 3.5 17.7966 3.5 14.7273V12.1818C3.5 9.21865 3.5 7.73706 3.96894 6.55375C4.72281 4.65142 6.31714 3.15088 8.33836 2.44135C9.59563 2 11.1698 2 14.3182 2C16.1173 2 17.0168 2 17.7352 2.2522C18.8902 2.65765 19.8012 3.5151 20.232 4.60214C20.5 5.27832 20.5 6.12494 20.5 7.81818V13" stroke="white" stroke-width="1.5" stroke-linecap="round" stroke-linejoin="round"/>
<path d="M3.5 12C3.5 10.1591 4.99238 8.66667 6.83333 8.66667C7.49912 8.66667 8.28404 8.78333 8.93137 8.60988C9.50652 8.45576 9.95576 8.00652 10.1099 7.43136C10.2833 6.78404 10.1667 5.99912 10.1667 5.33333C10.1667 3.49238 11.6591 2 13.5 2" stroke="white" stroke-width="1.5" stroke-linecap="round" stroke-linejoin="round"/>
</svg>
