<svg width="20" height="18" viewBox="0 0 20 18" fill="none" xmlns="http://www.w3.org/2000/svg">
<path d="M1.66663 9.73336V8.2667C1.66663 7.40003 2.37496 6.68336 3.24996 6.68336C4.75829 6.68336 5.37496 5.6167 4.61663 4.30836C4.18329 3.55836 4.44163 2.58336 5.19996 2.15003L6.64163 1.32503C7.29996 0.933362 8.14996 1.1667 8.54163 1.82503L8.63329 1.98336C9.38329 3.2917 10.6166 3.2917 11.375 1.98336L11.4666 1.82503C11.8583 1.1667 12.7083 0.933362 13.3666 1.32503L14.8083 2.15003C15.5666 2.58336 15.825 3.55836 15.3916 4.30836C14.6333 5.6167 15.25 6.68336 16.7583 6.68336C17.625 6.68336 18.3416 7.3917 18.3416 8.2667V9.73336C18.3416 10.6 17.6333 11.3167 16.7583 11.3167C15.25 11.3167 14.6333 12.3834 15.3916 13.6917C15.825 14.45 15.5666 15.4167 14.8083 15.85L13.3666 16.675C12.7083 17.0667 11.8583 16.8334 11.4666 16.175L11.375 16.0167C10.625 14.7084 9.39163 14.7084 8.63329 16.0167L8.54163 16.175C8.14996 16.8334 7.29996 17.0667 6.64163 16.675L5.19996 15.85C4.44163 15.4167 4.18329 14.4417 4.61663 13.6917C5.37496 12.3834 4.75829 11.3167 3.24996 11.3167C2.37496 11.3167 1.66663 10.6 1.66663 9.73336Z" stroke="white" stroke-width="1.5" stroke-miterlimit="10" stroke-linecap="round" stroke-linejoin="round"/>
</svg>
