<svg width="36" height="36" viewBox="0 0 36 36" fill="none" xmlns="http://www.w3.org/2000/svg">
<rect width="36" height="36" rx="18" fill="#FFBA00" fill-opacity="0.22"/>
<path d="M16.1067 17.2467C16.04 17.24 15.96 17.24 15.8867 17.2467C14.3 17.1934 13.04 15.8934 13.04 14.2934C13.04 12.66 14.36 11.3334 16 11.3334C17.6334 11.3334 18.96 12.66 18.96 14.2934C18.9534 15.8934 17.6934 17.1934 16.1067 17.2467Z" stroke="#FDB903" stroke-width="1.5" stroke-linecap="round" stroke-linejoin="round"/>
<path d="M20.9401 12.6666C22.2334 12.6666 23.2734 13.7133 23.2734 15C23.2734 16.26 22.2734 17.2866 21.0267 17.3333C20.9734 17.3266 20.9134 17.3266 20.8534 17.3333" stroke="#FDB903" stroke-width="1.5" stroke-linecap="round" stroke-linejoin="round"/>
<path d="M12.7734 19.7066C11.16 20.7866 11.16 22.5466 12.7734 23.62C14.6067 24.8466 17.6134 24.8466 19.4467 23.62C21.06 22.54 21.06 20.78 19.4467 19.7066C17.62 18.4866 14.6134 18.4866 12.7734 19.7066Z" stroke="#FDB903" stroke-width="1.5" stroke-linecap="round" stroke-linejoin="round"/>
<path d="M22.2267 23.3334C22.7067 23.2334 23.16 23.04 23.5334 22.7534C24.5734 21.9734 24.5734 20.6867 23.5334 19.9067C23.1667 19.6267 22.72 19.44 22.2467 19.3334" stroke="#FDB903" stroke-width="1.5" stroke-linecap="round" stroke-linejoin="round"/>
</svg>
