<svg width="36" height="36" viewBox="0 0 36 36" fill="none" xmlns="http://www.w3.org/2000/svg">
<rect width="36" height="36" rx="18" fill="#FFBA00" fill-opacity="0.22"/>
<g clip-path="url(#clip0_238_1301)">
<path d="M24.6663 22C24.6663 22.9335 24.6663 23.4002 24.4847 23.7567C24.3249 24.0703 24.0699 24.3253 23.7563 24.4851C23.3998 24.6667 22.9331 24.6667 21.9997 24.6667C21.0663 24.6667 20.5995 24.6667 20.243 24.4851C19.9294 24.3253 19.6745 24.0703 19.5147 23.7567C19.333 23.4002 19.333 22.9335 19.333 22C19.333 21.0666 19.333 20.5999 19.5147 20.2434C19.6745 19.9298 19.9294 19.6748 20.243 19.515C20.5995 19.3334 21.0663 19.3334 21.9997 19.3334C22.9331 19.3334 23.3998 19.3334 23.7563 19.515C24.0699 19.6748 24.3249 19.9298 24.4847 20.2434C24.6663 20.5999 24.6663 21.0666 24.6663 22Z" stroke="#FDB903" stroke-width="1.25"/>
<path d="M24.6663 16.6668C24.6663 17.6002 24.6663 18.0669 24.4847 18.4234C24.3249 18.737 24.0699 18.992 23.7563 19.1518C23.3998 19.3335 22.9331 19.3335 21.9997 19.3335C21.0663 19.3335 20.5995 19.3335 20.243 19.1518C19.9294 18.992 19.6745 18.737 19.5147 18.4234C19.333 18.0669 19.333 17.6002 19.333 16.6668C19.333 15.7334 19.333 15.2667 19.5147 14.9101C19.6745 14.5965 19.9294 14.3416 20.243 14.1818C20.5995 14.0001 21.0663 14.0001 21.9997 14.0001C22.9331 14.0001 23.3998 14.0001 23.7563 14.1818C24.0699 14.3416 24.3249 14.5965 24.4847 14.9101C24.6663 15.2667 24.6663 15.7334 24.6663 16.6668Z" stroke="#FDB903" stroke-width="1.25"/>
<path d="M19.3333 22C19.3333 22.9335 19.3333 23.4002 19.1517 23.7567C18.9919 24.0703 18.7369 24.3253 18.4233 24.4851C18.0668 24.6667 17.6001 24.6667 16.6667 24.6667C15.7332 24.6667 15.2665 24.6667 14.91 24.4851C14.5964 24.3253 14.3414 24.0703 14.1817 23.7567C14 23.4002 14 22.9335 14 22C14 21.0666 14 20.5999 14.1817 20.2434C14.3414 19.9298 14.5964 19.6748 14.91 19.515C15.2665 19.3334 15.7332 19.3334 16.6667 19.3334C17.6001 19.3334 18.0668 19.3334 18.4233 19.515C18.7369 19.6748 18.9919 19.9298 19.1517 20.2434C19.3333 20.5999 19.3333 21.0666 19.3333 22Z" stroke="#FDB903" stroke-width="1.25"/>
<path d="M16.6666 14C16.6666 14.9335 16.6666 15.4002 16.4849 15.7567C16.3251 16.0703 16.0702 16.3253 15.7566 16.4851C15.4001 16.6667 14.9333 16.6667 13.9999 16.6667C13.0665 16.6667 12.5998 16.6667 12.2433 16.4851C11.9297 16.3253 11.6747 16.0703 11.5149 15.7567C11.3333 15.4002 11.3333 14.9335 11.3333 14C11.3333 13.0666 11.3333 12.5999 11.5149 12.2434C11.6747 11.9298 11.9297 11.6748 12.2433 11.515C12.5998 11.3334 13.0665 11.3334 13.9999 11.3334C14.9333 11.3334 15.4001 11.3334 15.7566 11.515C16.0702 11.6748 16.3251 11.9298 16.4849 12.2434C16.6666 12.5999 16.6666 13.0666 16.6666 14Z" stroke="#FDB903" stroke-width="1.25"/>
</g>
<defs>
<clipPath id="clip0_238_1301">
<rect width="16" height="16" fill="white" transform="translate(10 10)"/>
</clipPath>
</defs>
</svg>
